<svg xmlns="http://www.w3.org/2000/svg" xmlns:svg="http://www.w3.org/2000/svg" xmlns:xlink="http://www.w3.org/1999/xlink" version="1.0" height="666.9999999999999pt" width="900.0000000000001pt" viewBox="164.9999999999999 210 908.0000000000001 672.9999999999999" ><defs><style type="text/css">
            @font-face {
                font-family: 'noto_regular';
                src: url('https://app.creately.com/diagram/assets/fonts/noto/noto-regular.woff') format('woff'),
                     url('https://app.creately.com/diagram/assets/fonts/noto/noto-regular.woff2') format('woff2');
                font-weight: normal;
                font-style: normal;
            }
        p {
            margin: 0;
        }
        </style></defs><defs><style>
            span{ display: inline-block; }
        </style></defs><g id="22ipjmalsc"><g transform="translate(169.9999999999999 682.2704081632651)"><path d="M 1.0057269989145419,0.9446147055869283 L 330.93947812214753,0.9446147055869283 L 330.93947812214753,30.227670578781705 L 1.0057269989145419,30.227670578781705 Z" fill="none" stroke="rgb(85, 85, 85)" stroke-width="2" stroke-linecap="round" stroke-linejoin="round"/><path d="M 1.0057269989145419,30.227670578781705 L 330.93947812214753,30.227670578781705 L 330.93947812214753,94.46147055869282 L 1.0057269989145419,94.46147055869282 Z" fill="none" stroke="rgb(85, 85, 85)" stroke-width="2" stroke-linecap="round" stroke-linejoin="round"/><path d="M 1.0057269989145419,94.46147055869282 L 330.93947812214753,94.46147055869282 L 330.93947812214753,196.47985876208108 L 1.0057269989145419,196.47985876208108 Z" fill="none" stroke="rgb(85, 85, 85)" stroke-width="2" stroke-linecap="round" stroke-linejoin="round"/><path d="M 1.0057269989145419,0.9446147055869283 L 330.93947812214753,0.9446147055869283 L 330.93947812214753,196.47985876208108 L 1.0057269989145419,196.47985876208108 Z" fill="rgb(116, 132, 193)" stroke="rgb(85, 85, 85)" stroke-width="2" stroke-linecap="round" stroke-linejoin="round"/><path d="M 1.0057269989145419,30.227670578781705 L 330.93947812214753,30.227670578781705 M 1.0057269989145419,94.46147055869282 L 330.93947812214753,94.46147055869282" fill="none" stroke="rgb(85, 85, 85)" stroke-width="2" stroke-linecap="round" stroke-linejoin="round"/></g><g transform="translate(296.7235141501402, 686.0488525719362) rotate(0, 0, 0)" width="80.95" height="18.5"><text text-decoration="none" x="0" fill="#111111" font-weight="bold" font-size="10pt" font-family="noto_regular"  y="17">Transaction&#160;</text><text text-decoration="none" x="82" fill="#4b4b4b" font-size="10pt" font-family="noto_regular"  y="17"></text></g><g transform="translate(176.03445305476848, 715.3317967391379) rotate(0, 0, 0)" width="90.32" height="18.5"><text text-decoration="none" x="0" fill="#111111" font-size="10pt" font-family="noto_regular"  y="17">-&#160;</text><text text-decoration="none" x="7" fill="#111111" font-size="10pt" font-family="noto_regular"  y="17">Date&#160;</text><text text-decoration="none" x="38" fill="#111111" font-size="10pt" font-family="noto_regular"  y="17">:&#160;</text><text text-decoration="none" x="44" fill="#111111" font-size="10pt" font-family="noto_regular"  y="17">object&#160;</text><text text-decoration="none" x="84" fill="#4b4b4b" font-size="10pt" font-family="noto_regular"  y="17"></text></g><g transform="translate(176.03445305476848, 734.2240187824937) rotate(0, 0, 0)" width="112.9" height="18.5"><text text-decoration="none" x="0" fill="#111111" font-size="10pt" font-family="noto_regular"  y="17">-Amount&#160;</text><text text-decoration="none" x="56" fill="#111111" font-size="10pt" font-family="noto_regular"  y="17">:&#160;</text><text text-decoration="none" x="62" fill="#111111" font-size="10pt" font-family="noto_regular"  y="17">double&#160;</text><text text-decoration="none" x="107" fill="#4b4b4b" font-size="10pt" font-family="noto_regular"  y="17"></text></g><g transform="translate(176.03445305476848, 753.1162408258496) rotate(0, 0, 0)" width="96.95" height="18.5"><text text-decoration="none" x="0" fill="#111111" font-size="10pt" font-family="noto_regular"  y="17">-&#160;</text><text text-decoration="none" x="7" fill="#111111" font-size="10pt" font-family="noto_regular"  y="17">Deposit&#160;</text><text text-decoration="none" x="56" fill="#111111" font-size="10pt" font-family="noto_regular"  y="17">:&#160;</text><text text-decoration="none" x="62" fill="#111111" font-size="10pt" font-family="noto_regular"  y="17">void&#160;</text><text text-decoration="none" x="91" fill="#4b4b4b" font-size="10pt" font-family="noto_regular"  y="17"></text></g><g transform="translate(176.03445305476848, 779.5653516865478) rotate(0, 0, 0)" width="303.64" height="18.5"><text text-decoration="none" x="0" fill="#111111" font-size="10pt" font-family="noto_regular"  y="17">+&#160;</text><text text-decoration="none" x="10" fill="#111111" font-size="10pt" font-family="noto_regular"  y="17">CalculateBalance(in&#160;</text><text text-decoration="none" x="128" fill="#111111" font-size="10pt" font-family="noto_regular"  y="17">Balance&#160;</text><text text-decoration="none" x="177" fill="#111111" font-size="10pt" font-family="noto_regular"  y="17">:&#160;</text><text text-decoration="none" x="183" fill="#111111" font-size="10pt" font-family="noto_regular"  y="17">double)&#160;</text><text text-decoration="none" x="232" fill="#111111" font-size="10pt" font-family="noto_regular"  y="17">:&#160;</text><text text-decoration="none" x="238" fill="#111111" font-size="10pt" font-family="noto_regular"  y="17">double&#160;</text><text text-decoration="none" x="283" fill="#4b4b4b" font-size="10pt" font-family="noto_regular"  y="17"></text></g><g transform="translate(176.03445305476848, 798.4575737299036) rotate(0, 0, 0)" width="127.14" height="18.5"><text text-decoration="none" x="0" fill="#111111" font-size="10pt" font-family="noto_regular"  y="17">+&#160;</text><text text-decoration="none" x="10" fill="#111111" font-size="10pt" font-family="noto_regular"  y="17">StartTransaction()&#160;</text><text text-decoration="none" x="120" fill="#4b4b4b" font-size="10pt" font-family="noto_regular"  y="17"></text></g><g transform="translate(176.03445305476848, 817.3497957732595) rotate(0, 0, 0)" width="200.22" height="18.5"><text text-decoration="none" x="0" fill="#111111" font-size="10pt" font-family="noto_regular"  y="17">+&#160;</text><text text-decoration="none" x="10" fill="#111111" font-size="10pt" font-family="noto_regular"  y="17">GetAccountBalance()&#160;</text><text text-decoration="none" x="137" fill="#111111" font-size="10pt" font-family="noto_regular"  y="17">:&#160;</text><text text-decoration="none" x="143" fill="#111111" font-size="10pt" font-family="noto_regular"  y="17">double&#160;</text><text text-decoration="none" x="188" fill="#4b4b4b" font-size="10pt" font-family="noto_regular"  y="17"></text></g><g transform="translate(176.03445305476848, 836.2420178166154) rotate(0, 0, 0)" width="176.04" height="18.5"><text text-decoration="none" x="0" fill="#111111" font-size="10pt" font-family="noto_regular"  y="17">+&#160;</text><text text-decoration="none" x="10" fill="#111111" font-size="10pt" font-family="noto_regular"  y="17">CancelTransaction()&#160;</text><text text-decoration="none" x="130" fill="#111111" font-size="10pt" font-family="noto_regular"  y="17">:&#160;</text><text text-decoration="none" x="136" fill="#111111" font-size="10pt" font-family="noto_regular"  y="17">void&#160;</text><text text-decoration="none" x="165" fill="#4b4b4b" font-size="10pt" font-family="noto_regular"  y="17"></text></g><g transform="translate(176.02945305476848, 855.1342398599713) rotate(0, 0.005, 0)" width="0.01" height="17.81"><text text-decoration="none" x="0.005" fill="#4b4b4b" font-size="10pt" font-family="noto_regular"  y="17"></text></g></g><g id="24nxv8urwa"><g transform="translate(203.64485981308405 232.6505102040816)"><path d="M 1.0786162008738083,0.8761473488917065 L 182.28492002776903,0.8761473488917065 L 182.28492002776903,44.68351479347703 L 1.0786162008738083,44.68351479347703 Z" fill="none" stroke="rgb(85, 85, 85)" stroke-width="2" stroke-linecap="round" stroke-linejoin="round"/><path d="M 1.0786162008738083,44.68351479347703 L 182.28492002776903,44.68351479347703 L 182.28492002776903,90.24317693584577 L 1.0786162008738083,90.24317693584577 Z" fill="none" stroke="rgb(85, 85, 85)" stroke-width="2" stroke-linecap="round" stroke-linejoin="round"/><path d="M 1.0786162008738083,90.24317693584577 L 182.28492002776903,90.24317693584577 L 182.28492002776903,184.86709061615008 L 1.0786162008738083,184.86709061615008 Z" fill="none" stroke="rgb(85, 85, 85)" stroke-width="2" stroke-linecap="round" stroke-linejoin="round"/><path d="M 1.0786162008738083,0.8761473488917065 L 182.28492002776903,0.8761473488917065 L 182.28492002776903,184.86709061615008 L 1.0786162008738083,184.86709061615008 Z" fill="rgb(116, 132, 193)" stroke="rgb(85, 85, 85)" stroke-width="2" stroke-linecap="round" stroke-linejoin="round"/><path d="M 1.0786162008738083,44.68351479347703 L 182.28492002776903,44.68351479347703 M 1.0786162008738083,90.24317693584577 L 182.28492002776903,90.24317693584577" fill="none" stroke="rgb(85, 85, 85)" stroke-width="2" stroke-linecap="round" stroke-linejoin="round"/></g><g transform="translate(292.0318703656563, 236.15509959964842) rotate(0, 0.005, 0)" width="0.01" height="17.81"><text text-decoration="none" x="0.005" fill="#4b4b4b" font-size="10pt" font-family="noto_regular"  y="17"></text></g><g transform="translate(246.73529082681512, 254.55419392637427) rotate(0, 0, 0)" width="91.59" height="18.5"><text text-decoration="none" x="0" fill="#111111" font-weight="bold" font-size="10pt" font-family="noto_regular"  y="17">Card&#160;</text><text text-decoration="none" x="33" fill="#111111" font-weight="bold" font-size="10pt" font-family="noto_regular"  y="17">Scanner&#160;</text><text text-decoration="none" x="90" fill="#4b4b4b" font-size="10pt" font-family="noto_regular"  y="17"></text></g><g transform="translate(210.1165140329185, 325.52212918660246) rotate(0, 0, 0)" width="130.34" height="18.5"><text text-decoration="none" x="0" fill="#111111" font-size="10pt" font-family="noto_regular"  y="17">+AcceptCard()&#160;</text><text text-decoration="none" x="86" fill="#111111" font-size="10pt" font-family="noto_regular"  y="17">:&#160;</text><text text-decoration="none" x="92" fill="#111111" font-size="10pt" font-family="noto_regular"  y="17">bool&#160;</text><text text-decoration="none" x="122" fill="#4b4b4b" font-size="10pt" font-family="noto_regular"  y="17"></text></g><g transform="translate(210.1165140329185, 343.04507616443664) rotate(0, 0, 0)" width="118.69" height="18.5"><text text-decoration="none" x="0" fill="#111111" font-size="10pt" font-family="noto_regular"  y="17">+ReadCard()&#160;</text><text text-decoration="none" x="76" fill="#111111" font-size="10pt" font-family="noto_regular"  y="17">:&#160;</text><text text-decoration="none" x="82" fill="#111111" font-size="10pt" font-family="noto_regular"  y="17">void&#160;</text><text text-decoration="none" x="111" fill="#4b4b4b" font-size="10pt" font-family="noto_regular"  y="17"></text></g><g transform="translate(210.1165140329185, 360.5680231422707) rotate(0, 0, 0)" width="116.77" height="18.5"><text text-decoration="none" x="0" fill="#111111" font-size="10pt" font-family="noto_regular"  y="17">+EjectCard()&#160;</text><text text-decoration="none" x="74" fill="#111111" font-size="10pt" font-family="noto_regular"  y="17">:&#160;</text><text text-decoration="none" x="80" fill="#111111" font-size="10pt" font-family="noto_regular"  y="17">void&#160;</text><text text-decoration="none" x="109" fill="#4b4b4b" font-size="10pt" font-family="noto_regular"  y="17"></text></g><g transform="translate(210.1165140329185, 378.0909701201049) rotate(0, 0, 0)" width="130.67" height="18.5"><text text-decoration="none" x="0" fill="#111111" font-size="10pt" font-family="noto_regular"  y="17">+ValidatePIN()&#160;</text><text text-decoration="none" x="88" fill="#111111" font-size="10pt" font-family="noto_regular"  y="17">:&#160;</text><text text-decoration="none" x="94" fill="#111111" font-size="10pt" font-family="noto_regular"  y="17">void&#160;</text><text text-decoration="none" x="123" fill="#4b4b4b" font-size="10pt" font-family="noto_regular"  y="17"></text></g><g transform="translate(210.1115140329185, 395.61391709793895) rotate(0, 0.005, 0)" width="0.01" height="17.81"><text text-decoration="none" x="0.005" fill="#4b4b4b" font-size="10pt" font-family="noto_regular"  y="17"></text></g></g><g id="8hocb8agdz"><g transform="translate(195.233644859813 454.3655612244896)"><path d="M 1.0352212158092098,0.910423561316418 L 200.83836556363363,0.910423561316418 L 200.83836556363363,46.43160162713732 L 1.0352212158092098,46.43160162713732 Z" fill="none" stroke="rgb(85, 85, 85)" stroke-width="2" stroke-linecap="round" stroke-linejoin="round"/><path d="M 1.0352212158092098,46.43160162713732 L 200.83836556363363,46.43160162713732 L 200.83836556363363,108.34040379665375 L 1.0352212158092098,108.34040379665375 Z" fill="none" stroke="rgb(85, 85, 85)" stroke-width="2" stroke-linecap="round" stroke-linejoin="round"/><path d="M 1.0352212158092098,108.34040379665375 L 200.83836556363363,108.34040379665375 L 200.83836556363363,201.20360705092838 L 1.0352212158092098,201.20360705092838 Z" fill="none" stroke="rgb(85, 85, 85)" stroke-width="2" stroke-linecap="round" stroke-linejoin="round"/><path d="M 1.0352212158092098,0.910423561316418 L 200.83836556363363,0.910423561316418 L 200.83836556363363,201.20360705092838 L 1.0352212158092098,201.20360705092838 Z" fill="rgb(116, 132, 193)" stroke="rgb(85, 85, 85)" stroke-width="2" stroke-linecap="round" stroke-linejoin="round"/><path d="M 1.0352212158092098,46.43160162713732 L 200.83836556363363,46.43160162713732 M 1.0352212158092098,108.34040379665375 L 200.83836556363363,108.34040379665375" fill="none" stroke="rgb(85, 85, 85)" stroke-width="2" stroke-linecap="round" stroke-linejoin="round"/></g><g transform="translate(293.05704975378336, 458.0072554697553) rotate(0, 0.005, 0)" width="0.01" height="17.81"><text text-decoration="none" x="0.005" fill="#4b4b4b" font-size="10pt" font-family="noto_regular"  y="17"></text></g><g transform="translate(262.005413279507, 477.12615025740007) rotate(0, 0, 0)" width="63.77" height="18.5"><text text-decoration="none" x="0" fill="#111111" font-weight="bold" font-size="10pt" font-family="noto_regular"  y="17">ATMCard&#160;</text><text text-decoration="none" x="62" fill="#4b4b4b" font-size="10pt" font-family="noto_regular"  y="17"></text></g><g transform="translate(201.44497215466828, 503.5284335355762) rotate(0, 0, 0)" width="58.09" height="18.5"><text text-decoration="none" x="0" fill="#111111" font-size="10pt" font-family="noto_regular"  y="17">-PIN&#160;</text><text text-decoration="none" x="29" fill="#111111" font-size="10pt" font-family="noto_regular"  y="17">:&#160;</text><text text-decoration="none" x="35" fill="#111111" font-size="10pt" font-family="noto_regular"  y="17">int&#160;</text><text text-decoration="none" x="54" fill="#4b4b4b" font-size="10pt" font-family="noto_regular"  y="17"></text></g><g transform="translate(201.44497215466828, 521.7369047619046) rotate(0, 0, 0)" width="90.67" height="18.5"><text text-decoration="none" x="0" fill="#111111" font-size="10pt" font-family="noto_regular"  y="17">-CardID&#160;</text><text text-decoration="none" x="48" fill="#111111" font-size="10pt" font-family="noto_regular"  y="17">:&#160;</text><text text-decoration="none" x="54" fill="#111111" font-size="10pt" font-family="noto_regular"  y="17">long&#160;</text><text text-decoration="none" x="83" fill="#4b4b4b" font-size="10pt" font-family="noto_regular"  y="17"></text></g><g transform="translate(201.44497215466828, 539.945375988233) rotate(0, 0, 0)" width="82.64" height="18.5"><text text-decoration="none" x="0" fill="#111111" font-size="10pt" font-family="noto_regular"  y="17">-Acc&#160;</text><text text-decoration="none" x="27" fill="#111111" font-size="10pt" font-family="noto_regular"  y="17">:&#160;</text><text text-decoration="none" x="33" fill="#111111" font-size="10pt" font-family="noto_regular"  y="17">Accont&#160;</text><text text-decoration="none" x="77" fill="#4b4b4b" font-size="10pt" font-family="noto_regular"  y="17"></text></g><g transform="translate(201.44497215466828, 565.4372357050927) rotate(0, 0, 0)" width="160.57" height="18.5"><text text-decoration="none" x="0" fill="#111111" font-size="10pt" font-family="noto_regular"  y="17">+SetPIN(in&#160;</text><text text-decoration="none" x="66" fill="#111111" font-size="10pt" font-family="noto_regular"  y="17">number&#160;</text><text text-decoration="none" x="117" fill="#111111" font-size="10pt" font-family="noto_regular"  y="17">:&#160;</text><text text-decoration="none" x="123" fill="#111111" font-size="10pt" font-family="noto_regular"  y="17">void&#160;</text><text text-decoration="none" x="152" fill="#4b4b4b" font-size="10pt" font-family="noto_regular"  y="17"></text></g><g transform="translate(201.44497215466828, 583.645706931421) rotate(0, 0, 0)" width="92.37" height="18.5"><text text-decoration="none" x="0" fill="#111111" font-size="10pt" font-family="noto_regular"  y="17">+GetPIN()&#160;</text><text text-decoration="none" x="61" fill="#111111" font-size="10pt" font-family="noto_regular"  y="17">:&#160;</text><text text-decoration="none" x="67" fill="#111111" font-size="10pt" font-family="noto_regular"  y="17">int&#160;</text><text text-decoration="none" x="86" fill="#4b4b4b" font-size="10pt" font-family="noto_regular"  y="17"></text></g><g transform="translate(201.44497215466828, 601.8541781577494) rotate(0, 0, 0)" width="154.55" height="18.5"><text text-decoration="none" x="0" fill="#111111" font-size="10pt" font-family="noto_regular"  y="17">+GetAccount()&#160;</text><text text-decoration="none" x="88" fill="#111111" font-size="10pt" font-family="noto_regular"  y="17">:&#160;</text><text text-decoration="none" x="94" fill="#111111" font-size="10pt" font-family="noto_regular"  y="17">Account&#160;</text><text text-decoration="none" x="146" fill="#4b4b4b" font-size="10pt" font-family="noto_regular"  y="17"></text></g><g transform="translate(201.43997215466828, 620.0626493840778) rotate(0, 0.005, 0)" width="0.01" height="17.81"><text text-decoration="none" x="0.005" fill="#4b4b4b" font-size="10pt" font-family="noto_regular"  y="17"></text></g></g><g id="4gatq10tak"><g transform="translate(531.6822429906542 239.5280612244898)"><path d="M 1.0512838380351244,0.9410890074629316 L 167.24859757122658,0.9410890074629316 L 167.24859757122658,47.99553938060951 L 1.0512838380351244,47.99553938060951 Z" fill="none" stroke="rgb(85, 85, 85)" stroke-width="2" stroke-linecap="round" stroke-linejoin="round"/><path d="M 1.0512838380351244,47.99553938060951 L 167.24859757122658,47.99553938060951 L 167.24859757122658,96.93216776868195 L 1.0512838380351244,96.93216776868195 Z" fill="none" stroke="rgb(85, 85, 85)" stroke-width="2" stroke-linecap="round" stroke-linejoin="round"/><path d="M 1.0512838380351244,96.93216776868195 L 167.24859757122658,96.93216776868195 L 167.24859757122658,160.9262202761613 L 1.0512838380351244,160.9262202761613 Z" fill="none" stroke="rgb(85, 85, 85)" stroke-width="2" stroke-linecap="round" stroke-linejoin="round"/><path d="M 1.0512838380351244,0.9410890074629316 L 167.24859757122658,0.9410890074629316 L 167.24859757122658,160.9262202761613 L 1.0512838380351244,160.9262202761613 Z" fill="rgb(116, 132, 193)" stroke="rgb(85, 85, 85)" stroke-width="2" stroke-linecap="round" stroke-linejoin="round"/><path d="M 1.0512838380351244,47.99553938060951 L 167.24859757122658,47.99553938060951 M 1.0512838380351244,96.93216776868195 L 167.24859757122658,96.93216776868195" fill="none" stroke="rgb(85, 85, 85)" stroke-width="2" stroke-linecap="round" stroke-linejoin="round"/></g><g transform="translate(612.6260985193588, 243.29240128003863) rotate(0, 0.005, 0)" width="0.01" height="17.81"><text text-decoration="none" x="0.005" fill="#4b4b4b" font-size="10pt" font-family="noto_regular"  y="17"></text></g><g transform="translate(566.9002515648309, 263.05518657167005) rotate(0, 0, 0)" width="96.11" height="18.5"><text text-decoration="none" x="0" fill="#111111" font-weight="bold" font-size="10pt" font-family="noto_regular"  y="17">DisplayScreen&#160;</text><text text-decoration="none" x="95" fill="#4b4b4b" font-size="10pt" font-family="noto_regular"  y="17"></text></g><g transform="translate(537.989946018865, 339.2830726965342) rotate(0, 0, 0)" width="97.3" height="18.5"><text text-decoration="none" x="0" fill="#111111" font-size="10pt" font-family="noto_regular"  y="17">+Prompt()&#160;</text><text text-decoration="none" x="64" fill="#111111" font-size="10pt" font-family="noto_regular"  y="17">void&#160;</text><text text-decoration="none" x="93" fill="#4b4b4b" font-size="10pt" font-family="noto_regular"  y="17"></text></g><g transform="translate(537.989946018865, 358.10477297427843) rotate(0, 0, 0)" width="132.39" height="18.5"><text text-decoration="none" x="0" fill="#111111" font-size="10pt" font-family="noto_regular"  y="17">+Acceptinput()&#160;</text><text text-decoration="none" x="90" fill="#111111" font-size="10pt" font-family="noto_regular"  y="17">:&#160;</text><text text-decoration="none" x="96" fill="#111111" font-size="10pt" font-family="noto_regular"  y="17">void&#160;</text><text text-decoration="none" x="125" fill="#4b4b4b" font-size="10pt" font-family="noto_regular"  y="17"></text></g><g transform="translate(537.984946018865, 376.9264732520227) rotate(0, 0.005, 0)" width="0.01" height="17.81"><text text-decoration="none" x="0.005" fill="#4b4b4b" font-size="10pt" font-family="noto_regular"  y="17"></text></g></g><g id="1d9i80f6wm"><g transform="translate(733.5514018691588 364.1836734693876)"><path d="M 1.2940186405804621,0.8373641664457997 L 335.1545794902608,0.8373641664457997 L 335.1545794902608,26.79565332626559 L 1.2940186405804621,26.79565332626559 Z" fill="none" stroke="rgb(85, 85, 85)" stroke-width="2" stroke-linecap="round" stroke-linejoin="round"/><path d="M 1.2940186405804621,26.79565332626559 L 335.1545794902608,26.79565332626559 L 335.1545794902608,117.23098330241196 L 1.2940186405804621,117.23098330241196 Z" fill="none" stroke="rgb(85, 85, 85)" stroke-width="2" stroke-linecap="round" stroke-linejoin="round"/><path d="M 1.2940186405804621,117.23098330241196 L 335.1545794902608,117.23098330241196 L 335.1545794902608,257.9081632653063 L 1.2940186405804621,257.9081632653063 Z" fill="none" stroke="rgb(85, 85, 85)" stroke-width="2" stroke-linecap="round" stroke-linejoin="round"/><path d="M 1.2940186405804621,0.8373641664457997 L 335.1545794902608,0.8373641664457997 L 335.1545794902608,257.9081632653063 L 1.2940186405804621,257.9081632653063 Z" fill="rgb(116, 132, 193)" stroke="rgb(85, 85, 85)" stroke-width="2" stroke-linecap="round" stroke-linejoin="round"/><path d="M 1.2940186405804621,26.79565332626559 L 335.1545794902608,26.79565332626559 M 1.2940186405804621,117.23098330241196 L 335.1545794902608,117.23098330241196" fill="none" stroke="rgb(85, 85, 85)" stroke-width="2" stroke-linecap="round" stroke-linejoin="round"/></g><g transform="translate(837.0740474478791, 367.5331301351708) rotate(0, 0, 0)" width="100.74" height="18.5"><text text-decoration="none" x="0" fill="#111111" font-weight="bold" font-size="10pt" font-family="noto_regular"  y="17">BankCustomer&#160;</text><text text-decoration="none" x="101" fill="#4b4b4b" font-size="10pt" font-family="noto_regular"  y="17"></text></g><g transform="translate(741.3156002875628, 393.4914192949906) rotate(0, 0, 0)" width="157.94" height="18.5"><text text-decoration="none" x="0" fill="#111111" font-size="10pt" font-family="noto_regular"  y="17">-&#160;</text><text text-decoration="none" x="7" fill="#111111" font-size="10pt" font-family="noto_regular"  y="17">CustomerName&#160;</text><text text-decoration="none" x="105" fill="#111111" font-size="10pt" font-family="noto_regular"  y="17">:&#160;</text><text text-decoration="none" x="111" fill="#111111" font-size="10pt" font-family="noto_regular"  y="17">string&#160;</text><text text-decoration="none" x="148" fill="#4b4b4b" font-size="10pt" font-family="noto_regular"  y="17"></text></g><g transform="translate(741.3156002875628, 410.2387026239066) rotate(0, 0, 0)" width="104.12" height="18.5"><text text-decoration="none" x="0" fill="#111111" font-size="10pt" font-family="noto_regular"  y="17">-&#160;</text><text text-decoration="none" x="7" fill="#111111" font-size="10pt" font-family="noto_regular"  y="17">Address&#160;</text><text text-decoration="none" x="58" fill="#111111" font-size="10pt" font-family="noto_regular"  y="17">:&#160;</text><text text-decoration="none" x="64" fill="#111111" font-size="10pt" font-family="noto_regular"  y="17">sting&#160;</text><text text-decoration="none" x="96" fill="#4b4b4b" font-size="10pt" font-family="noto_regular"  y="17"></text></g><g transform="translate(741.3156002875628, 426.9859859528226) rotate(0, 0, 0)" width="84.19" height="18.5"><text text-decoration="none" x="0" fill="#111111" font-size="10pt" font-family="noto_regular"  y="17">-&#160;</text><text text-decoration="none" x="7" fill="#111111" font-size="10pt" font-family="noto_regular"  y="17">Email&#160;</text><text text-decoration="none" x="42" fill="#111111" font-size="10pt" font-family="noto_regular"  y="17">:sting&#160;</text><text text-decoration="none" x="77" fill="#4b4b4b" font-size="10pt" font-family="noto_regular"  y="17"></text></g><g transform="translate(741.3156002875628, 443.7332692817386) rotate(0, 0, 0)" width="109.57" height="18.5"><text text-decoration="none" x="0" fill="#111111" font-size="10pt" font-family="noto_regular"  y="17">-&#160;</text><text text-decoration="none" x="7" fill="#111111" font-size="10pt" font-family="noto_regular"  y="17">Card&#160;</text><text text-decoration="none" x="38" fill="#111111" font-size="10pt" font-family="noto_regular"  y="17">:&#160;</text><text text-decoration="none" x="44" fill="#111111" font-size="10pt" font-family="noto_regular"  y="17">ATMCard&#160;</text><text text-decoration="none" x="102" fill="#4b4b4b" font-size="10pt" font-family="noto_regular"  y="17"></text></g><g transform="translate(741.3156002875628, 460.48055261065457) rotate(0, 0, 0)" width="86.35" height="18.5"><text text-decoration="none" x="0" fill="#111111" font-size="10pt" font-family="noto_regular"  y="17">Acc&#160;</text><text text-decoration="none" x="23" fill="#111111" font-size="10pt" font-family="noto_regular"  y="17">:&#160;</text><text text-decoration="none" x="29" fill="#111111" font-size="10pt" font-family="noto_regular"  y="17">Account&#160;</text><text text-decoration="none" x="81" fill="#4b4b4b" font-size="10pt" font-family="noto_regular"  y="17"></text></g><g transform="translate(741.3156002875628, 483.926749271137) rotate(0, 0, 0)" width="127.64" height="18.5"><text text-decoration="none" x="0" fill="#111111" font-size="10pt" font-family="noto_regular"  y="17">+&#160;</text><text text-decoration="none" x="10" fill="#111111" font-size="10pt" font-family="noto_regular"  y="17">InsertCard()&#160;</text><text text-decoration="none" x="84" fill="#111111" font-size="10pt" font-family="noto_regular"  y="17">:&#160;</text><text text-decoration="none" x="90" fill="#111111" font-size="10pt" font-family="noto_regular"  y="17">void&#160;</text><text text-decoration="none" x="119" fill="#4b4b4b" font-size="10pt" font-family="noto_regular"  y="17"></text></g><g transform="translate(741.3156002875628, 500.674032600053) rotate(0, 0, 0)" width="170.4" height="18.5"><text text-decoration="none" x="0" fill="#111111" font-size="10pt" font-family="noto_regular"  y="17">+&#160;</text><text text-decoration="none" x="10" fill="#111111" font-size="10pt" font-family="noto_regular"  y="17">SlectTranssaction()&#160;</text><text text-decoration="none" x="125" fill="#111111" font-size="10pt" font-family="noto_regular"  y="17">:&#160;</text><text text-decoration="none" x="131" fill="#111111" font-size="10pt" font-family="noto_regular"  y="17">void&#160;</text><text text-decoration="none" x="160" fill="#4b4b4b" font-size="10pt" font-family="noto_regular"  y="17"></text></g><g transform="translate(741.3156002875628, 517.421315928969) rotate(0, 0, 0)" width="211.85" height="18.5"><text text-decoration="none" x="0" fill="#111111" font-size="10pt" font-family="noto_regular"  y="17">+&#160;</text><text text-decoration="none" x="10" fill="#111111" font-size="10pt" font-family="noto_regular"  y="17">EnterPIN(in&#160;</text><text text-decoration="none" x="82" fill="#111111" font-size="10pt" font-family="noto_regular"  y="17">Number&#160;</text><text text-decoration="none" x="135" fill="#111111" font-size="10pt" font-family="noto_regular"  y="17">:&#160;</text><text text-decoration="none" x="141" fill="#111111" font-size="10pt" font-family="noto_regular"  y="17">int)&#160;</text><text text-decoration="none" x="164" fill="#111111" font-size="10pt" font-family="noto_regular"  y="17">:&#160;</text><text text-decoration="none" x="170" fill="#111111" font-size="10pt" font-family="noto_regular"  y="17">void&#160;</text><text text-decoration="none" x="199" fill="#4b4b4b" font-size="10pt" font-family="noto_regular"  y="17"></text></g><g transform="translate(741.3156002875628, 534.168599257885) rotate(0, 0, 0)" width="131.89" height="18.5"><text text-decoration="none" x="0" fill="#111111" font-size="10pt" font-family="noto_regular"  y="17">+&#160;</text><text text-decoration="none" x="10" fill="#111111" font-size="10pt" font-family="noto_regular"  y="17">ChangePIN()&#160;</text><text text-decoration="none" x="88" fill="#111111" font-size="10pt" font-family="noto_regular"  y="17">:&#160;</text><text text-decoration="none" x="94" fill="#111111" font-size="10pt" font-family="noto_regular"  y="17">void&#160;</text><text text-decoration="none" x="123" fill="#4b4b4b" font-size="10pt" font-family="noto_regular"  y="17"></text></g><g transform="translate(741.3156002875628, 550.915882586801) rotate(0, 0, 0)" width="152.15" height="18.5"><text text-decoration="none" x="0" fill="#111111" font-size="10pt" font-family="noto_regular"  y="17">+&#160;</text><text text-decoration="none" x="10" fill="#111111" font-size="10pt" font-family="noto_regular"  y="17">WithdrawCash()&#160;</text><text text-decoration="none" x="108" fill="#111111" font-size="10pt" font-family="noto_regular"  y="17">:&#160;</text><text text-decoration="none" x="114" fill="#111111" font-size="10pt" font-family="noto_regular"  y="17">void&#160;</text><text text-decoration="none" x="143" fill="#4b4b4b" font-size="10pt" font-family="noto_regular"  y="17"></text></g><g transform="translate(741.3156002875628, 567.663165915717) rotate(0, 0, 0)" width="234.99" height="18.5"><text text-decoration="none" x="0" fill="#111111" font-size="10pt" font-family="noto_regular"  y="17">RequestTransactionSummary()&#160;</text><text text-decoration="none" x="188" fill="#111111" font-size="10pt" font-family="noto_regular"  y="17">:&#160;</text><text text-decoration="none" x="194" fill="#111111" font-size="10pt" font-family="noto_regular"  y="17">void&#160;</text><text text-decoration="none" x="223" fill="#4b4b4b" font-size="10pt" font-family="noto_regular"  y="17"></text></g><g transform="translate(741.3156002875628, 584.410449244633) rotate(0, 0, 0)" width="105.12" height="18.5"><text text-decoration="none" x="0" fill="#111111" font-size="10pt" font-family="noto_regular"  y="17">AcceptAmount()&#160;</text><text text-decoration="none" x="100" fill="#4b4b4b" font-size="10pt" font-family="noto_regular"  y="17"></text></g><g transform="translate(741.3106002875628, 601.157732573549) rotate(0, 0.005, 0)" width="0.01" height="17.81"><text text-decoration="none" x="0.005" fill="#4b4b4b" font-size="10pt" font-family="noto_regular"  y="17"></text></g></g><g id="2hk6jtufp0"><g transform="translate(548.5046728971963 690.8673469387753)"><path d="M 1.054595492066662,0.922554065433811 L 268.0905501832113,0.922554065433811 L 268.0905501832113,47.050257337124364 L 1.054595492066662,47.050257337124364 Z" fill="none" stroke="rgb(85, 85, 85)" stroke-width="2" stroke-linecap="round" stroke-linejoin="round"/><path d="M 1.054595492066662,47.050257337124364 L 268.0905501832113,47.050257337124364 L 268.0905501832113,109.7839337866235 L 1.054595492066662,109.7839337866235 Z" fill="none" stroke="rgb(85, 85, 85)" stroke-width="2" stroke-linecap="round" stroke-linejoin="round"/><path d="M 1.054595492066662,109.7839337866235 L 268.0905501832113,109.7839337866235 L 268.0905501832113,190.96869154479887 L 1.054595492066662,190.96869154479887 Z" fill="none" stroke="rgb(85, 85, 85)" stroke-width="2" stroke-linecap="round" stroke-linejoin="round"/><path d="M 1.054595492066662,0.922554065433811 L 268.0905501832113,0.922554065433811 L 268.0905501832113,190.96869154479887 L 1.054595492066662,190.96869154479887 Z" fill="rgb(116, 132, 193)" stroke="rgb(85, 85, 85)" stroke-width="2" stroke-linecap="round" stroke-linejoin="round"/><path d="M 1.054595492066662,47.050257337124364 L 268.0905501832113,47.050257337124364 M 1.054595492066662,109.7839337866235 L 268.0905501832113,109.7839337866235" fill="none" stroke="rgb(85, 85, 85)" stroke-width="2" stroke-linecap="round" stroke-linejoin="round"/></g><g transform="translate(679.908975879002, 694.5574103775404) rotate(0, 0.005, 0)" width="0.01" height="17.81"><text text-decoration="none" x="0.005" fill="#4b4b4b" font-size="10pt" font-family="noto_regular"  y="17"></text></g><g transform="translate(653.5477433385113, 713.9302434310567) rotate(0, 0, 0)" width="56.84" height="18.5"><text text-decoration="none" x="0" fill="#111111" font-weight="bold" font-size="10pt" font-family="noto_regular"  y="17">Account&#160;</text><text text-decoration="none" x="58" fill="#4b4b4b" font-size="10pt" font-family="noto_regular"  y="17"></text></g><g transform="translate(554.8325687069141, 740.6832033621032) rotate(0, 0, 0)" width="138.14" height="18.5"><text text-decoration="none" x="0" fill="#111111" font-size="10pt" font-family="noto_regular"  y="17">-AccountNumber&#160;</text><text text-decoration="none" x="106" fill="#111111" font-size="10pt" font-family="noto_regular"  y="17">:&#160;</text><text text-decoration="none" x="112" fill="#111111" font-size="10pt" font-family="noto_regular"  y="17">int&#160;</text><text text-decoration="none" x="131" fill="#4b4b4b" font-size="10pt" font-family="noto_regular"  y="17"></text></g><g transform="translate(554.8325687069141, 759.1335205559284) rotate(0, 0, 0)" width="111.77" height="18.5"><text text-decoration="none" x="0" fill="#111111" font-size="10pt" font-family="noto_regular"  y="17">-Balance&#160;</text><text text-decoration="none" x="53" fill="#111111" font-size="10pt" font-family="noto_regular"  y="17">:&#160;</text><text text-decoration="none" x="59" fill="#111111" font-size="10pt" font-family="noto_regular"  y="17">double&#160;</text><text text-decoration="none" x="104" fill="#4b4b4b" font-size="10pt" font-family="noto_regular"  y="17"></text></g><g transform="translate(554.8325687069141, 777.5838377497536) rotate(0, 0, 0)" width="127.39" height="18.5"><text text-decoration="none" x="0" fill="#111111" font-size="10pt" font-family="noto_regular"  y="17">-Trans&#160;</text><text text-decoration="none" x="40" fill="#111111" font-size="10pt" font-family="noto_regular"  y="17">:&#160;</text><text text-decoration="none" x="46" fill="#111111" font-size="10pt" font-family="noto_regular"  y="17">Transaction&#160;</text><text text-decoration="none" x="119" fill="#4b4b4b" font-size="10pt" font-family="noto_regular"  y="17"></text></g><g transform="translate(554.8325687069141, 803.4142818211087) rotate(0, 0, 0)" width="149.22" height="18.5"><text text-decoration="none" x="0" fill="#111111" font-size="10pt" font-family="noto_regular"  y="17">+CalculateIntrest()&#160;</text><text text-decoration="none" x="112" fill="#111111" font-size="10pt" font-family="noto_regular"  y="17">void&#160;</text><text text-decoration="none" x="141" fill="#4b4b4b" font-size="10pt" font-family="noto_regular"  y="17"></text></g><g transform="translate(554.8325687069141, 821.8645990149339) rotate(0, 0, 0)" width="154.25" height="18.5"><text text-decoration="none" x="0" fill="#111111" font-size="10pt" font-family="noto_regular"  y="17">+UpdateAccount()&#160;</text><text text-decoration="none" x="111" fill="#111111" font-size="10pt" font-family="noto_regular"  y="17">:&#160;</text><text text-decoration="none" x="117" fill="#111111" font-size="10pt" font-family="noto_regular"  y="17">void&#160;</text><text text-decoration="none" x="146" fill="#4b4b4b" font-size="10pt" font-family="noto_regular"  y="17"></text></g><g transform="translate(554.8325687069141, 840.3149162087591) rotate(0, 0, 0)" width="205.59" height="18.5"><text text-decoration="none" x="0" fill="#111111" font-size="10pt" font-family="noto_regular"  y="17">+VerifyWithdrawAmount()&#160;</text><text text-decoration="none" x="159" fill="#111111" font-size="10pt" font-family="noto_regular"  y="17">:&#160;</text><text text-decoration="none" x="165" fill="#111111" font-size="10pt" font-family="noto_regular"  y="17">Void&#160;</text><text text-decoration="none" x="195" fill="#4b4b4b" font-size="10pt" font-family="noto_regular"  y="17"></text></g><g transform="translate(554.8275687069141, 858.7652334025842) rotate(0, 0.005, 0)" width="0.01" height="17.81"><text text-decoration="none" x="0.005" fill="#4b4b4b" font-size="10pt" font-family="noto_regular"  y="17"></text></g></g><g id="4fl8kxzgpu"><g><path d="M 902,364 L 901.7757009345794,319.04974489795916 L 700,319" fill="none" stroke="#555555" stroke-width="1.5" stroke-linecap="round" stroke-linejoin="round" stroke-dasharray="5 5"/><path d="M 902,364 L 907.75,355.30434782608694 L 896.25,355.30434782608694 Z" fill="rgb(255,255,255)" stroke="#555555" stroke-width="1.5" stroke-linecap="round" stroke-linejoin="round"/></g></g><g id="2ku9omst9l"><g><path d="M 549,785 L 525.2249390091291,785.4336734693876 L 525,783 L 525.2249390091291,780.5099627887156 L 502,781" fill="none" stroke="#555555" stroke-width="1.5" stroke-linecap="round" stroke-linejoin="round" stroke-dasharray="5 5"/><path d="M 549,785 L 540.304347826087,779.25 L 540.304347826087,790.75 Z" fill="rgb(255,255,255)" stroke="#555555" stroke-width="1.5" stroke-linecap="round" stroke-linejoin="round"/></g></g><g id="710qopt60g"><g><path d="M 683,691 L 683.0841121495321,555.4225765306121 L 397,555" fill="none" stroke="#555555" stroke-width="1.5" stroke-linecap="round" stroke-linejoin="round"/><path d="M 683,691 L 688.75,682.304347826087 L 677.25,682.304347826087 Z" fill="rgb(85,85,85)" stroke="#555555" stroke-width="1.5" stroke-linecap="round" stroke-linejoin="round"/></g></g><g id="15y82ttlyk"><g><path d="M 902,622 L 901.7757009345794,656.4795918367347 L 792,656 L 683.0841121495321,656.4795918367347 L 683,691" fill="none" stroke="#555555" stroke-width="1.5" stroke-linecap="round" stroke-linejoin="round" stroke-dasharray="5 5"/><path d="M 902,622 L 896.25,630.695652173913 L 907.75,630.695652173913 Z" fill="rgb(255,255,255)" stroke="#555555" stroke-width="1.5" stroke-linecap="round" stroke-linejoin="round"/></g></g><g id="2pudufoehy"><g><path d="M 734,493 L 565.3293167542073,493.1377551020408 L 565,524 L 565.3293167542073,555.4225765306121 L 397,555" fill="none" stroke="#555555" stroke-width="1.5" stroke-linecap="round" stroke-linejoin="round" stroke-dasharray="5 5"/><path d="M 734,493 L 725.304347826087,487.25 L 725.304347826087,498.75 Z" fill="rgb(255,255,255)" stroke="#555555" stroke-width="1.5" stroke-linecap="round" stroke-linejoin="round"/></g></g><g id="25ikbecgwj"><g><path d="M 296,454 L 296.1704382495344,435.06543367346893 L 296,435 L 295.32662792740547,435.06543367346893 L 295,416" fill="none" stroke="#555555" stroke-width="1.5" stroke-linecap="round" stroke-linejoin="round"/><path d="M 296,454 L 301.75,445.30434782608694 L 290.25,445.30434782608694 Z" fill="rgb(85,85,85)" stroke="#555555" stroke-width="1.5" stroke-linecap="round" stroke-linejoin="round"/></g></g><g id="6q9za5o84p"><g><path d="M 387,324 L 486,324.2079081632649 L 486,409 L 486,493.1377551020408 L 734,493" fill="none" stroke="#555555" stroke-width="1.5" stroke-linecap="round" stroke-linejoin="round" stroke-dasharray="5 5"/><path d="M 387,324 L 395.69565217391306,329.75 L 395.69565217391306,318.25 Z" fill="rgb(255,255,255)" stroke="#555555" stroke-width="1.5" stroke-linecap="round" stroke-linejoin="round"/></g></g><g id="n1gyJHHEH1X"><g><path d="M 295,233 L 295,213 L 351,213 L 407,213 L 407,213 L 407,212.94083948428226 L 512,213 L 616,212.94083948428226 L 616,240" fill="none" stroke="#7E7E7E" stroke-width="2" stroke-linecap="round" stroke-linejoin="round"/><path d="M 616,240 L 621.75,231.30434782608697 L 610.25,231.30434782608697 Z" fill="rgb(126,126,126)" stroke="#7E7E7E" stroke-width="2" stroke-linecap="round" stroke-linejoin="round"/></g></g></svg>